<svg xmlns="http://www.w3.org/2000/svg" width="512" height="512" viewBox="0 0 512 512">
  <defs>
    <linearGradient id="bg" x1="0" y1="0" x2="0" y2="1">
      <stop offset="0%" stop-color="#1e293b"/>
      <stop offset="100%" stop-color="#0f172a"/>
    </linearGradient>
    <linearGradient id="brain" x1="0" y1="0" x2="1" y2="1">
      <stop offset="0%" stop-color="#38bdf8"/>
      <stop offset="100%" stop-color="#3b82f6"/>
    </linearGradient>
  </defs>
  <!-- Rounded square background -->
  <rect x="0" y="0" width="512" height="512" rx="96" ry="96" fill="url(#bg)"/>
  <!-- Outer ring -->
  <rect x="32" y="32" width="448" height="448" rx="72" ry="72" fill="none" stroke="#3b82f6" stroke-width="12" opacity="0.6"/>
  <!-- Brain -->
  <g fill="none" stroke="url(#brain)" stroke-width="16" stroke-linecap="round" stroke-linejoin="round">
    <!-- Left hemisphere -->
    <path d="M216 128c-30 8-52 32-52 64 0 26 13 46 32 58-6 10-10 24-10 38 0 40 26 72 68 84"/>
    <!-- Right hemisphere -->
    <path d="M296 128c30 8 52 32 52 64 0 26-13 46-32 58 6 10 10 24 10 38 0 40-26 72-68 84"/>
    <!-- Top fold -->
    <path d="M256 118c0 24-6 44-14 60"/>
    <path d="M256 118c0 24 6 44 14 60"/>
    <!-- Fold lines left -->
    <path d="M222 168c-12 10-20 26-22 44"/>
    <path d="M206 226c-12 14-18 32-18 54"/>
    <!-- Fold lines right -->
    <path d="M290 168c12 10 20 26 22 44"/>
    <path d="M306 226c12 14 18 32 18 54"/>
    <!-- Brainstem -->
    <path d="M242 376c0 14 4 24 14 24s14-10 14-24"/>
  </g>
</svg>
